PathFileType	4	(X/Y/Z)	SUBJ63_1_walk_RCNL2025.trc
DataRate	CameraRate	NumFrames	NumMarkers	Units	OrigDataRate	OrigDataStartFrame	OrigNumFrames
100	100	10	25	mm	100	209	238
Frame#	Time	R_Shoulder			L_Shoulder			C7			J_Notch			R_Elbow			L_Elbow			R_Wrist			L_Wrist			R_Asis			L_Asis			Sacral			Thoracic			Sternum			R_Thigh_Lateral			R_Knee_Lateral			R_Shank_Lateral			R_Ankle_Lateral			R_Heel			R_Toe			L_Thigh_Lateral			L_Knee_Lateral			L_Shank_Lateral			L_Ankle_Lateral			L_Heel			L_Toe		
		X1	Y1	Z1	X2	Y2	Z2	X3	Y3	Z3	X4	Y4	Z4	X5	Y5	Z5	X6	Y6	Z6	X7	Y7	Z7	X8	Y8	Z8	X9	Y9	Z9	X10	Y10	Z10	X11	Y11	Z11	X12	Y12	Z12	X13	Y13	Z13	X14	Y14	Z14	X15	Y15	Z15	X16	Y16	Z16	X17	Y17	Z17	X18	Y18	Z18	X19	Y19	Z19	X20	Y20	Z20	X21	Y21	Z21	X22	Y22	Z22	X23	Y23	Z23	X24	Y24	Z24	X25	Y25	Z25
209	2.08000000	2049.324707	1280.554321	-122.562088	2015.595947	1288.404785	-453.760010	1951.164307	1349.499268	-281.140686	2069.263428	1240.664917	-296.335815	2016.034912	1000.660889	-16.895193	1951.722168	995.960449	-548.108582	2096.644653	787.007874	14.799881	2050.826355	793.895721	-587.511261	2086.004639	841.942749	-167.846130	2080.353271	839.566895	-419.188965	1858.550903	843.667236	-288.961945	1867.127319	1170.980957	-277.344391	2111.279053	1059.490234	-297.623810	2029.050659	490.969543	-126.834473	2019.380859	436.365173	-178.513733	1991.342407	253.286331	-142.466248	1967.869385	49.773514	-232.304367	1921.992798	50.209084	-281.594269	2082.569092	37.830921	-236.567261	2110.073486	481.594299	-530.319031	2118.422852	452.947296	-465.880676	2016.037476	304.238647	-500.817169	1901.239746	143.352844	-427.776550	1862.196167	160.581268	-368.230896	1987.579590	67.316460	-439.392059
210	2.09000000	2064.047119	1282.099121	-122.700394	2026.780396	1288.752686	-454.014404	1964.385620	1349.918091	-280.429810	2082.816162	1241.545044	-296.871552	2034.270996	1002.043213	-16.151068	1958.506470	996.873230	-547.360779	2119.126831	789.603638	12.948381	2051.173950	792.774841	-591.256165	2099.002930	841.795288	-166.364380	2094.701660	841.653503	-417.254456	1872.361328	844.772156	-289.274719	1881.128662	1171.438721	-275.436005	2124.805664	1061.230835	-298.060944	2033.667114	491.023468	-126.913330	2022.408447	436.581970	-178.495270	1992.126587	253.667709	-142.561813	1968.058228	50.015144	-232.524490	1922.316772	50.691563	-282.241119	2082.688477	37.731434	-236.568329	2131.175293	484.774750	-528.265991	2139.305176	456.205139	-463.598663	2045.407227	301.357727	-499.550079	1942.205444	131.991577	-426.867279	1901.876465	146.273972	-367.537109	2034.102051	63.053349	-438.643402
211	2.10000000	2078.704834	1283.201782	-122.812714	2037.952271	1288.646851	-454.212250	1977.790283	1349.943115	-279.820740	2096.357178	1241.984253	-297.381958	2052.526123	1003.011047	-15.337862	1965.180542	997.399414	-546.480347	2141.687134	791.939392	11.152912	2051.379028	791.642609	-594.977112	2111.992432	841.221497	-164.873657	2109.201416	842.962585	-415.222748	1886.207520	845.387085	-289.863647	1895.142578	1171.469360	-273.577393	2138.407227	1062.515259	-298.458130	2038.101929	491.064087	-127.004456	2025.444702	436.812958	-178.466705	1992.831299	254.121536	-142.686661	1968.290405	50.317425	-232.808136	1922.819702	51.360710	-282.924438	2082.857910	37.615627	-236.564484	2151.442627	487.345947	-526.026611	2159.212158	458.668701	-461.089569	2074.899902	297.483337	-498.038055	1984.159302	120.690331	-425.731323	1943.022217	131.820389	-366.423767	2081.017334	59.344967	-438.083832
212	2.11000000	2093.326416	1283.828491	-122.906227	2049.176270	1288.074707	-454.345062	1991.355591	1349.599731	-279.318787	2109.898682	1241.973145	-297.854218	2070.828857	1003.561768	-14.473660	1971.800781	997.533752	-545.470215	2164.285278	793.992065	9.413419	2051.483154	790.475525	-598.644379	2124.995117	840.213684	-163.419800	2123.844971	843.457458	-413.210327	1900.081299	845.527893	-290.647583	1909.160522	1171.079346	-271.792877	2152.092773	1063.282349	-298.818207	2042.441406	491.115875	-127.104401	2028.571777	437.056061	-178.441956	1993.525391	254.650497	-142.855301	1968.574097	50.696125	-233.176544	1923.496094	52.200470	-283.650360	2083.084717	37.490952	-236.539948	2170.745117	489.229950	-523.624756	2178.145752	460.288208	-458.408417	2104.463379	292.862885	-496.286591	2027.038940	109.775276	-424.408875	1985.560547	117.574142	-364.904327	2128.198730	56.468109	-437.748169
213	2.12000000	2107.937988	1283.963989	-122.990829	2060.515625	1287.040894	-454.412079	2005.021484	1348.897705	-278.914703	2123.450195	1241.514526	-298.278595	2089.207275	1003.709045	-13.585118	1978.426758	997.293274	-544.352417	2186.888672	795.753723	7.727924	2051.527771	789.264740	-602.226257	2138.026855	838.791626	-162.046768	2138.618164	843.136353	-411.331696	1913.989014	845.225708	-291.548126	1923.166260	1170.287964	-270.108795	2165.874023	1063.492920	-299.141968	2046.797241	491.185455	-127.212387	2031.890259	437.308258	-178.438980	1994.286255	255.249680	-143.097717	1968.918945	51.166035	-233.660706	1924.327271	53.176743	-284.464172	2083.379883	37.370525	-236.476822	2188.966797	490.323944	-521.099854	2196.120605	461.047607	-455.629761	2133.997314	287.810242	-494.331696	2070.721191	99.572624	-422.946381	2029.314453	103.911530	-363.044525	2175.484375	54.673973	-437.579773
214	2.13000000	2122.560547	1283.611816	-123.078674	2072.028809	1285.565796	-454.420959	2018.732056	1347.839600	-278.590302	2137.020264	1240.619995	-298.649170	2107.684570	1003.481689	-12.705128	1985.123535	996.719360	-543.171936	2209.466919	797.229034	6.093823	2051.557373	788.014801	-605.688934	2151.095703	837.001648	-160.788757	2153.502441	842.032349	-409.683655	1927.951538	844.519348	-292.500122	1937.135010	1169.125122	-268.551086	2179.763184	1063.127686	-299.428467	2051.309570	491.256470	-127.329102	2035.522949	437.562866	-178.477753	1995.207764	255.906433	-143.457962	1969.333374	51.740437	-234.297806	1925.298706	54.263206	-285.424500	2083.753174	37.268204	-236.366196	2206.032227	490.509644	-518.506042	2213.161377	460.955231	-452.827576	2163.371582	282.654724	-492.231781	2115.005127	90.395767	-421.387207	2073.987061	91.209404	-360.954529	2222.662354	54.167114	-437.434601
215	2.14000000	2137.207764	1282.792236	-123.183739	2083.767578	1283.682739	-454.387604	2032.464355	1346.437744	-278.324432	2150.617432	1239.310669	-298.964844	2126.273926	1002.921631	-11.871578	1991.960449	995.870300	-541.982727	2231.990112	798.434082	4.509094	2051.620911	786.741272	-608.996796	2164.202881	834.910767	-159.664139	2168.478271	840.211243	-408.332672	1941.994629	843.452454	-293.459167	1951.030640	1167.628784	-267.141632	2193.770508	1062.184570	-299.675079	2056.141113	491.293793	-127.458229	2039.606323	437.805420	-178.578262	1996.392700	256.608490	-143.984360	1969.824707	52.431885	-235.122406	1926.406006	55.457226	-286.587250	2084.200195	37.188210	-236.216797	2221.930176	489.676117	-515.906067	2229.311279	460.037811	-450.061432	2192.438477	277.690491	-490.049316	2159.599365	82.523041	-419.764008	2119.158203	79.810600	-358.769745	2269.460693	55.083054	-437.101868
216	2.15000000	2151.883545	1281.540161	-123.322403	2095.775391	1281.434814	-454.334015	2046.224976	1344.723389	-278.103729	2164.250977	1237.616455	-299.230011	2144.972656	1002.081604	-11.125848	1999.005005	994.808655	-540.825928	2254.426758	799.396515	2.972831	2051.773132	785.468689	-612.115051	2177.344482	832.599609	-158.673325	2183.524658	837.767273	-407.307648	1956.138184	842.074585	-294.405090	1964.802368	1165.843628	-265.893219	2207.898438	1060.677734	-299.878357	2061.451416	491.255798	-127.609383	2044.268555	438.012207	-178.757797	1997.935669	257.350403	-144.713913	1970.396606	53.253094	-236.151871	1927.647461	56.778221	-287.991730	2084.699951	37.123943	-236.051895	2236.722900	487.744446	-513.363647	2244.649170	458.344604	-447.376343	2221.047119	273.140747	-487.835663	2204.115479	76.167419	-418.091675	2164.298828	69.986595	-356.622375	2315.546875	57.469128	-436.341217
217	2.16000000	2166.585205	1279.904907	-123.514442	2108.084717	1278.872070	-454.285095	2060.024658	1342.741211	-277.930969	2177.929443	1235.577271	-299.453827	2163.760742	1001.023376	-10.508979	2006.319580	993.591614	-539.719238	2276.743042	800.155457	1.484632	2052.073364	784.227539	-615.010651	2190.519043	830.155212	-157.800415	2198.621826	834.819397	-406.599548	1970.390381	840.437012	-295.339752	1978.385986	1163.822510	-264.805939	2222.135498	1058.636719	-300.036804	2067.360596	491.112488	-127.795609	2049.606445	438.156647	-179.025726	1999.906494	258.133698	-145.654892	1971.044678	54.216412	-237.369507	1929.010010	58.255905	-289.632202	2085.225342	37.068592	-235.896866	2250.544922	484.691650	-510.932892	2259.296387	455.956635	-444.803986	2249.062256	269.145569	-485.624268	2248.073730	71.443932	-416.360870	2208.807373	61.907143	-354.608765	2360.530273	61.265499	-434.931396
218	2.17000000	2181.306396	1277.949585	-123.781776	2120.715332	1276.050537	-454.265625	2073.864258	1340.539185	-277.824097	2191.661377	1233.240845	-299.649139	2182.599854	999.813538	-10.055962	2013.960205	992.267700	-538.665710	2298.901611	800.759094	0.043558	2052.584534	783.049927	-617.652008	2203.731689	827.662415	-157.019470	2213.751221	831.507263	-406.168427	1984.752197	838.585693	-296.282715	1991.713257	1161.629028	-263.867340	2236.450439	1056.108032	-300.154236	2073.928955	490.859406	-128.020142	2055.671631	438.218842	-179.374405	2002.347046	258.968231	-146.769852	1971.753784	55.332600	-238.713898	1930.460083	59.920437	-291.433350	2085.752930	37.022568	-235.767426	2263.589600	480.572937	-508.644714	2273.418701	452.995972	-442.359039	2276.372803	265.772827	-483.426239	2290.923584	68.347221	-414.538177	2252.052246	55.620869	-352.765137	2403.973633	66.290955	-432.720978
